<svg id="svg" version="1.1" xmlns="http://www.w3.org/2000/svg" xmlns:xlink="http://www.w3.org/1999/xlink" width="400" height="400" viewBox="0, 0, 400,400"><g id="svgg"><path id="path0" d="M128.031 68.739 C 145.207 78.958,157.774 94.367,163.680 112.452 L 165.067 116.700 168.042 110.889 C 171.757 103.631,171.768 104.051,167.698 97.759 C 158.606 83.704,145.640 73.100,130.299 67.173 C 121.443 63.752,120.612 64.326,128.031 68.739 M183.900 70.313 C 179.884 77.644,176.914 85.094,174.955 92.753 C 172.572 102.072,172.763 102.427,177.667 97.789 C 179.993 95.589,183.157 93.188,184.698 92.453 C 186.239 91.718,187.500 90.578,187.500 89.919 C 187.500 89.260,189.269 86.930,191.431 84.740 L 195.363 80.759 191.461 78.932 L 187.559 77.104 187.334 70.779 L 187.109 64.453 183.900 70.313 M212.500 70.804 L 212.500 77.077 208.569 78.918 L 204.637 80.759 208.569 84.740 C 210.731 86.930,212.500 89.260,212.500 89.919 C 212.500 90.578,213.761 91.718,215.302 92.453 C 216.843 93.188,220.055 95.626,222.441 97.871 L 226.778 101.953 226.208 98.047 C 225.298 91.809,221.440 80.657,217.560 73.047 C 212.705 63.526,212.500 63.435,212.500 70.804 M269.040 67.446 C 253.438 73.774,241.424 83.694,232.286 97.793 C 228.236 104.042,228.247 103.640,231.931 110.835 L 234.879 116.592 236.682 111.617 C 243.556 92.648,254.851 78.923,271.969 68.739 C 279.522 64.246,278.280 63.698,269.040 67.446 M192.094 93.215 C 172.883 98.660,161.646 125.378,169.033 148.047 C 180.175 182.241,219.825 182.241,230.967 148.047 C 240.856 117.699,218.243 85.804,192.094 93.215 M123.185 127.434 L 131.917 136.328 132.698 150.268 C 133.127 157.934,133.592 164.311,133.731 164.439 C 133.870 164.567,142.904 168.266,153.805 172.659 C 175.738 181.497,174.522 181.405,175.374 174.294 C 175.661 171.889,176.064 169.215,176.267 168.352 C 176.599 166.945,174.941 166.182,160.260 160.993 L 143.882 155.203 143.405 146.938 C 143.142 142.391,142.742 136.878,142.515 134.685 L 142.104 130.697 129.450 125.026 C 122.491 121.907,116.270 119.172,115.625 118.947 C 114.980 118.723,118.383 122.542,123.185 127.434 M270.936 124.818 L 257.887 130.772 257.480 134.722 C 257.256 136.894,256.858 142.390,256.596 146.934 L 256.118 155.196 239.973 160.923 C 231.093 164.073,223.749 166.703,223.652 166.769 C 223.299 167.008,225.527 179.693,226.006 180.173 C 226.391 180.558,265.224 165.381,266.269 164.436 C 266.408 164.310,266.873 157.934,267.302 150.268 L 268.083 136.328 276.802 127.539 C 281.598 122.705,285.176 118.776,284.753 118.807 C 284.330 118.838,278.112 121.543,270.936 124.818 M179.398 173.201 C 178.269 178.932,176.452 192.337,176.761 192.647 C 176.953 192.839,179.141 191.772,181.624 190.277 C 188.171 186.335,193.222 184.841,200.000 184.841 C 206.778 184.841,211.829 186.335,218.376 190.277 C 224.066 193.704,223.864 194.166,221.987 182.003 C 220.079 169.643,221.018 170.642,214.399 173.927 C 203.155 179.508,194.678 178.850,180.345 171.283 C 180.061 171.133,179.636 171.996,179.398 173.201 M192.383 189.488 C 157.990 198.750,142.247 263.869,163.873 307.422 C 186.962 353.920,233.512 339.648,244.140 282.813 C 253.810 231.100,225.750 180.504,192.383 189.488 M124.828 203.089 L 118.015 212.350 108.031 217.554 C 97.122 223.240,95.098 224.645,98.828 223.942 C 100.117 223.699,106.094 222.915,112.109 222.200 L 123.047 220.900 130.168 213.966 C 134.085 210.152,137.650 207.031,138.091 207.031 C 138.532 207.031,144.116 207.732,150.501 208.588 C 156.886 209.444,162.364 210.148,162.675 210.151 C 162.986 210.154,163.757 209.159,164.387 207.941 C 165.017 206.723,167.140 203.752,169.106 201.338 L 172.681 196.950 170.129 196.546 C 168.726 196.324,160.723 195.773,152.344 195.322 C 143.965 194.871,135.879 194.350,134.375 194.165 C 131.682 193.833,131.538 193.967,124.828 203.089 M247.266 195.359 C 236.523 196.126,227.627 196.781,227.496 196.815 C 227.365 196.848,228.856 198.837,230.810 201.235 C 232.763 203.633,234.968 206.622,235.709 207.876 C 236.449 209.130,237.293 210.156,237.583 210.156 C 237.874 210.156,243.335 209.456,249.720 208.599 C 256.104 207.743,261.639 207.040,262.019 207.037 C 262.399 207.034,265.915 210.152,269.832 213.966 L 276.953 220.900 287.891 222.200 C 293.906 222.915,299.883 223.699,301.172 223.942 C 304.902 224.645,302.878 223.240,291.969 217.554 L 281.985 212.350 275.172 203.072 C 271.425 197.970,268.008 193.833,267.578 193.879 C 267.148 193.925,258.008 194.591,247.266 195.359 M137.592 242.239 C 124.028 245.822,126.025 243.447,121.111 261.838 L 117.008 277.192 109.258 286.746 C 104.996 292.001,101.664 296.456,101.855 296.646 C 102.275 297.067,125.825 284.603,127.020 283.327 C 127.486 282.829,129.586 277.022,131.687 270.422 C 135.951 257.022,135.217 257.845,144.353 256.222 C 150.672 255.099,150.321 255.559,151.148 247.298 C 151.405 244.738,151.817 241.838,152.064 240.853 C 152.667 238.448,151.530 238.557,137.592 242.239 M248.051 241.426 C 248.337 242.727,248.804 246.117,249.090 248.961 C 249.690 254.936,249.590 254.850,258.177 256.794 L 264.400 258.203 268.393 270.529 C 270.589 277.308,272.710 283.162,273.107 283.539 C 274.388 284.754,297.787 297.004,298.145 296.646 C 298.336 296.456,295.004 292.001,290.742 286.746 L 282.992 277.192 278.889 261.838 C 273.971 243.433,276.082 245.898,262.048 242.181 C 247.585 238.350,247.373 238.339,248.051 241.426 " stroke="none" fill="#000000" fill-rule="evenodd"></path></g></svg>